<svg xmlns="http://www.w3.org/2000/svg" viewBox="0 0 116 40"><g fill="#3cb7c2"><path d="M11.8 9.4C5.3 9.4 0 15 0 21.8c0 6.8 5.3 12.4 11.8 12.4 2.5 0 4.8-.8 6.7-2.2v1.9h5.1V21.8c0-6.8-5.3-12.4-11.8-12.4zm0 19.4c-3.7 0-6.7-3.1-6.7-7s3-7 6.7-7 6.7 3.1 6.7 7c0 3.8-3 7-6.7 7zM62.8 9.4C56.3 9.4 51 14.9 51 21.8c0 6.8 5.3 12.4 11.8 12.4 2.5 0 4.8-.8 6.7-2.2v1.9h5.1V21.8c0-6.8-5.3-12.4-11.8-12.4zm0 19.4c-3.7 0-6.7-3.1-6.7-7s3-7 6.7-7 6.7 3.1 6.7 7c-.1 3.8-3.1 7-6.7 7zM44 11.6c-1.9-1.4-4.2-2.2-6.7-2.2-6.5 0-11.8 5.5-11.8 12.4 0 6.8 5.3 12.4 11.8 12.4 6.5 0 11.8-5.5 11.8-12.4V0H44v11.6zm-6.7 17.2c-3.7 0-6.7-3.1-6.7-7s3-7 6.7-7 6.7 3.1 6.7 7c0 3.8-3 7-6.7 7zM88.2 9.4c-6.5 0-11.8 5.5-11.8 12.4V40h5.1v-8c1.9 1.4 4.2 2.2 6.7 2.2 6.5 0 11.8-5.5 11.8-12.4 0-6.8-5.3-12.4-11.8-12.4zm0 19.4c-3.7 0-6.7-3.1-6.7-7s3-7 6.7-7 6.7 3.1 6.7 7c0 3.8-3 7-6.7 7zM113.7 28.8s-1.8 0-3.5-.9c-2.2-1.1-3.2-3.1-3.2-6.1v-7h4.4V9.4H107V0h-5.1v21.8c0 5 2.1 8.8 6 10.9 2.8 1.5 5.5 1.5 5.8 1.5h2.3v-5.4h-2.3z"/></g></svg>